<svg xmlns="http://www.w3.org/2000/svg" width="599" height="599" viewBox="0 0 599 599">
  <g id="Group_1" data-name="Group 1" transform="translate(-800.113 -338.113)">
    <rect id="Rectangle_1" data-name="Rectangle 1" width="599" height="599" transform="translate(800.113 338.113)" fill="none"/>
    <path id="Union_1" data-name="Union 1" d="M106.727,219.313A24.711,24.711,0,0,1,82,194.62V114.38a24.711,24.711,0,0,1,24.727-24.693h24.732A24.71,24.71,0,0,1,156.186,65h49.459a24.711,24.711,0,0,1,24.732,24.687H255.1a24.712,24.712,0,0,1,24.732,24.693v80.24A24.713,24.713,0,0,1,255.1,219.313ZM91.275,114.38v80.24a15.464,15.464,0,0,0,15.451,15.438H255.1a15.466,15.466,0,0,0,15.458-15.438V114.38A15.46,15.46,0,0,0,255.1,98.949h-34V89.687a15.459,15.459,0,0,0-15.458-15.431H156.186a15.459,15.459,0,0,0-15.451,15.431v9.26H106.727A15.459,15.459,0,0,0,91.275,114.38Zm46.365,37.036a43.277,43.277,0,1,1,43.279,43.209,43.277,43.277,0,0,1-43.279-43.209Zm9.276,0a34,34,0,1,0,34-33.948,34,34,0,0,0-34,33.948Zm101-30.743a5.2,5.2,0,1,1,1.527,3.684A5.2,5.2,0,0,1,247.919,120.674Z" transform="translate(919.293 495.457)" fill="#ccc"/>
  </g>
</svg>
