<svg xmlns="http://www.w3.org/2000/svg" width="195" height="195" viewBox="0 0 195 195">
  <g id="Group_6286" data-name="Group 6286" transform="translate(-441 -457)">
    <rect id="Rectangle_2330" data-name="Rectangle 2330" width="195" height="195" transform="translate(441 457)" fill="none"/>
    <g id="Group_6285" data-name="Group 6285" transform="translate(479.241 523.72)">
      <path opacity="0.35" id="Path_6468" data-name="Path 6468" d="M322.845-345.4c.281.128.516.229.75.34q12.909,6.017,25.823,12.02a1.975,1.975,0,0,0,1.143.121q6.808-1.354,13.606-2.758a2.634,2.634,0,0,1,.34-.021c.1,12.319.206,24.614.311,37.036-.263-.148-.43-.229-.594-.336Q345.105-310.555,326-322.127a1.143,1.143,0,0,1-.475-.743c-.686-5.551-1.332-11.108-1.993-16.661-.217-1.828-.441-3.636-.66-5.452C322.852-345.108,322.854-345.226,322.845-345.4Z" transform="translate(-307.155 368.699)" fill="#7e7e7e"/>
      <path opacity="0.35" id="Path_6469" data-name="Path 6469" d="M678.771-239.628v-37.365l4.824,1.143q5.313,1.255,10.628,2.514a1.789,1.789,0,0,0,.763.012q11.259-2.454,22.516-4.927c.13-.03.267-.039.475-.066-.3,1.691-.59,3.325-.882,4.959q-1.723,9.648-3.428,19.3a1.067,1.067,0,0,1-.759.932q-16.769,6.639-33.526,13.311C679.2-239.756,679.006-239.706,678.771-239.628Z" transform="translate(-620.005 309.74)" fill="#7e7e7e"/>
      <path opacity="0.35" id="Path_6470" data-name="Path 6470" d="M613.013-519.823c.482-.295.889-.546,1.3-.791q4.9-2.917,9.808-5.823a1.345,1.345,0,0,1,.891-.173q24.452,5.758,48.9,11.554a4.371,4.371,0,0,1,.457.162c-.9.528-1.728,1.017-2.559,1.5-3.2,1.862-6.4,3.718-9.6,5.6a1.422,1.422,0,0,1-1.186.149q-23.679-6.01-47.365-11.99C613.486-519.691,613.3-519.746,613.013-519.823Z" transform="translate(-562.206 527.99)" fill="#7e7e7e"/>
      <path opacity="0.35" id="Path_6471" data-name="Path 6471" d="M242.433-448.828l.686-19.1h.229a2.821,2.821,0,0,1,.057.457q-.215,6.426-.436,12.854c-.062,1.81-.112,3.622-.2,5.43-.021.427.139.583.51.729,2.171.85,4.342,1.73,6.495,2.6.167.066.329.139.654.279-.521.135-.894.242-1.271.329q-6.435,1.492-12.875,2.971a1.569,1.569,0,0,1-.914-.091q-20.875-9.17-41.739-18.368a1.22,1.22,0,0,1-.489-.343c.414-.059.825-.128,1.239-.176,4.177-.487,8.357-.978,12.537-1.442a2.646,2.646,0,0,1,1.223.174q16.776,6.7,33.54,13.428C241.887-449.031,242.111-448.949,242.433-448.828Z" transform="translate(-193.137 476.403)" fill="#7e7e7e"/>
      <path opacity="0.35" id="Path_6472" data-name="Path 6472" d="M738.364-358.369l-7.347,1.682q-17.352,3.96-34.705,7.9a3.136,3.136,0,0,1-1.348-.018c-5.027-1.159-10.066-2.345-15.1-3.524-.155-.037-.306-.087-.61-.174,1.8-.457,3.458-.859,5.117-1.266q17.4-4.264,34.806-8.517a3.276,3.276,0,0,1,1.408-.044q8.676,1.844,17.34,3.736c.155.034.308.08.457.121Z" transform="translate(-620.43 383.617)" fill="#7e7e7e"/>
      <path opacity="0.35" id="Path_6473" data-name="Path 6473" d="M248.7-534.124l4.063-.441,13.026-1.4L278.7-537.34c1.922-.206,3.844-.421,5.768-.606a.814.814,0,0,1,.615.229c2.045,2.438,4.07,4.893,6.1,7.342a1.249,1.249,0,0,1,.089.2c-.64.107-1.257.229-1.876.311l-26.508,4.036c-1.949.3-3.9.615-5.848.894a.871.871,0,0,1-.686-.2q-3.814-4.369-7.587-8.773A1.117,1.117,0,0,1,248.7-534.124Z" transform="translate(-241.988 537.947)" fill="#7e7e7e"/>
    </g>
  </g>
</svg>
