<svg xmlns="http://www.w3.org/2000/svg" xmlns:xlink="http://www.w3.org/1999/xlink" width="561.163" height="99.337" viewBox="0 0 561.163 99.337">
  <defs>
    <linearGradient id="linear-gradient" x1="0.5" y1="1" x2="0.5" gradientUnits="objectBoundingBox">
      <stop offset="0" stop-color="#eb5c99"/>
      <stop offset="0.77" stop-color="#613983"/>
      <stop offset="1" stop-color="#613983"/>
    </linearGradient>
    <linearGradient id="linear-gradient-3" x1="10.692" y1="3.954" x2="0.007" y2="3.954" gradientUnits="objectBoundingBox">
      <stop offset="0.37" stop-color="#c63d77"/>
      <stop offset="1" stop-color="#613983"/>
    </linearGradient>
    <linearGradient id="linear-gradient-4" x1="6.402" y1="5.754" x2="-0.613" y2="5.754" xlink:href="#linear-gradient-3"/>
    <linearGradient id="linear-gradient-5" x1="5.26" y1="3.974" x2="-1.726" y2="3.974" xlink:href="#linear-gradient-3"/>
    <linearGradient id="linear-gradient-6" x1="3.025" y1="3.994" x2="-3.954" y2="3.994" xlink:href="#linear-gradient-3"/>
    <linearGradient id="linear-gradient-7" x1="1.905" y1="5.715" x2="-5.065" y2="5.715" xlink:href="#linear-gradient-3"/>
    <linearGradient id="linear-gradient-8" x1="0.993" y1="5.705" x2="-7.537" y2="5.705" xlink:href="#linear-gradient-3"/>
  </defs>
  <g id="Taggbox-Widget" transform="translate(-1378.86 4533.914)">
    <text id="Widget" transform="translate(1780.023 -4469.851)" fill="#2b2b2b" font-size="44" font-family="Comfortaa-Medium, Comfortaa" font-weight="500"><tspan x="0" y="0">Widget</tspan></text>
    <g id="Taggbox" transform="translate(1378.859 -4533.917)">
      <g id="Layer_2" data-name="Layer 2" transform="translate(0 12.752)">
        <path id="Path_6624" data-name="Path 6624" d="M37.554,24A37.554,37.554,0,1,0,75.109,61.554,37.554,37.554,0,0,0,37.554,24Zm0,72.081A34.527,34.527,0,1,1,72.081,61.554,34.527,34.527,0,0,1,37.554,96.081Z" transform="translate(0 -24)" fill="url(#linear-gradient)"/>
      </g>
      <g id="Layer_3" data-name="Layer 3" transform="translate(4.356 17.161)">
        <path id="Path_6625" data-name="Path 6625" d="M8.2,65.446A33.146,33.146,0,1,1,41.346,98.591,33.146,33.146,0,0,1,8.2,65.446Z" transform="translate(-8.2 -32.3)" fill="url(#linear-gradient)"/>
      </g>
      <g id="Layer_4" data-name="Layer 4" transform="translate(13.811 36.814)">
        <path id="Path_6626" data-name="Path 6626" d="M73.488,69.3H26V84.12H39.758v18.06l20.5-18.06h13.23Z" transform="translate(-26 -69.3)" fill="#fff"/>
      </g>
      <g id="Layer_5" data-name="Layer 5" transform="translate(84.935)">
        <path id="Path_6627" data-name="Path 6627" d="M190.867,66.82a4.366,4.366,0,0,1,1.328,3.24v.106a4.552,4.552,0,0,1-1.328,3.187,4.3,4.3,0,0,1-3.187,1.381H183.7a13.842,13.842,0,0,1-10.039-4.143,13.641,13.641,0,0,1-4.143-9.986V29.637h-5.1a4.552,4.552,0,0,1-3.187-1.328,4.25,4.25,0,0,1-1.328-3.187v-.106a4.675,4.675,0,0,1,1.328-3.24,4.3,4.3,0,0,1,3.187-1.381h5.1V4.512a4.674,4.674,0,0,1,1.328-3.24A4.207,4.207,0,0,1,174.028,0h.159a4.5,4.5,0,0,1,3.187,1.275,4.451,4.451,0,0,1,1.328,3.24v15.67h.372v.159h8.6a4.388,4.388,0,0,1,3.187,1.381,4.451,4.451,0,0,1,1.328,3.24v.106a4.552,4.552,0,0,1-1.328,3.187,4.249,4.249,0,0,1-3.187,1.328h-8.605V29.8H178.7V60.5a4.648,4.648,0,0,0,1.434,3.453,4.818,4.818,0,0,0,3.506,1.487h3.984a5.094,5.094,0,0,1,3.243,1.38Z" transform="translate(-159.898 0.006)" fill="url(#linear-gradient-3)"/>
      </g>
      <g id="Layer_6" data-name="Layer 6" transform="translate(115.319 25.234)">
        <path id="Path_6628" data-name="Path 6628" d="M242.012,47.5A24.78,24.78,0,0,0,217.1,72.412c0,13.864,11.049,24.222,24.912,24.222,5.63,0,10.358-1.328,14.607-4.94a5.241,5.241,0,0,0,4.727,4.94,4.781,4.781,0,0,0,4.94-4.94V72.359C266.234,58.548,255.876,47.5,242.012,47.5Zm0,39.467c-8.286,0-15.3-6.268-15.3-14.607a15.511,15.511,0,0,1,15.3-15.3c8.286,0,14.607,7.065,14.607,15.351a14.292,14.292,0,0,1-14.607,14.555Z" transform="translate(-217.099 -47.499)" fill="url(#linear-gradient-4)"/>
      </g>
      <g id="Layer_7" data-name="Layer 7" transform="translate(170.403 25.022)">
        <path id="Path_6629" data-name="Path 6629" d="M345.553,47.1a24.753,24.753,0,0,0,0,49.506,25.454,25.454,0,0,0,14.979-5.1v5.418a15.022,15.022,0,0,1-28.524,6.268,4.956,4.956,0,0,0-6.534-2.178,4.871,4.871,0,0,0-2.284,6.534A24.769,24.769,0,0,0,370.2,96.659V71.906A24.7,24.7,0,0,0,345.553,47.1Zm0,39.679A14.979,14.979,0,1,1,360.532,71.8a14.979,14.979,0,0,1-14.979,14.979Z" transform="translate(-320.8 -47.1)" fill="url(#linear-gradient-5)"/>
      </g>
      <g id="Layer_9" data-name="Layer 9" transform="translate(226.676 0.428)">
        <path id="Path_6631" data-name="Path 6631" d="M553.153,25.234a24.886,24.886,0,0,0-14.979,4.993V5.687a4.887,4.887,0,1,0-9.774,0V49.934a24.827,24.827,0,1,0,24.753-24.7Zm0,39.679a14.963,14.963,0,1,1,10.6-4.383A14.963,14.963,0,0,1,553.153,64.913Z" transform="translate(-528.4 -0.8)" fill="url(#linear-gradient-6)"/>
      </g>
      <g id="Layer_10" data-name="Layer 10" transform="translate(281.919 25.022)">
        <path id="Path_6632" data-name="Path 6632" d="M657.153,47.1a24.753,24.753,0,1,0,24.753,24.753A24.753,24.753,0,0,0,657.153,47.1Zm0,39.679A14.979,14.979,0,1,1,672.132,71.8a14.979,14.979,0,0,1-14.979,14.979Z" transform="translate(-632.4 -47.1)" fill="url(#linear-gradient-7)"/>
      </g>
      <g id="Layer_11" data-name="Layer 11" transform="translate(336.081 24.938)">
        <path id="Path_6633" data-name="Path 6633" d="M760.784,71.779,773.8,54.888a4.919,4.919,0,0,0-.9-6.905,4.69,4.69,0,0,0-6.746.9L754.622,63.758,743.1,48.885a4.781,4.781,0,0,0-6.8-.9,4.914,4.914,0,0,0-.9,6.9l13.014,16.892L735.393,88.671a4.881,4.881,0,1,0,7.7,6L754.622,79.8l11.527,14.873a4.94,4.94,0,0,0,3.825,1.859A4.6,4.6,0,0,0,772.9,95.47a4.781,4.781,0,0,0,.9-6.8Z" transform="translate(-734.366 -46.943)" fill="url(#linear-gradient-8)"/>
      </g>
    </g>
  </g>
</svg>
