<svg width="28" height="30" viewBox="0 0 28 30" fill="none" xmlns="http://www.w3.org/2000/svg">
<path d="M7.69603 17.659C8.57003 13.516 9.42304 9.48898 10.266 5.45898C10.4084 4.8672 10.5056 4.26549 10.557 3.65899C10.6115 2.81102 10.3498 1.97292 9.82256 1.30658C9.29529 0.640237 8.5398 0.192895 7.70202 0.0509621C6.84619 -0.11391 5.95979 0.0616786 5.23143 0.540342C4.50307 1.01901 3.99021 1.76295 3.80199 2.61395C2.52299 8.49195 1.26501 14.3749 0.0850109 20.2729C-0.387989 22.6369 1.26003 24.402 3.86803 24.473C9.27303 24.626 14.678 24.7729 20.084 24.8459C21.1431 24.8939 22.2001 24.7146 23.184 24.3199C23.8173 23.9707 24.3149 23.4189 24.5969 22.753C24.8788 22.0871 24.9289 21.3457 24.739 20.6479C24.5583 19.8912 24.1262 19.2182 23.5133 18.739C22.9004 18.2597 22.143 18.0027 21.365 18.0099C17.858 17.9019 14.349 17.836 10.841 17.748C9.80899 17.727 8.78103 17.691 7.69603 17.659Z" fill="#00E9FF"/>
<path d="M19.7371 11.506C15.5031 11.506 11.386 11.506 7.27001 11.491C6.66163 11.5074 6.05291 11.4776 5.44903 11.402C4.60803 11.2797 3.8422 10.8501 3.29955 10.1961C2.7569 9.54206 2.47598 8.71011 2.51104 7.861C2.52613 6.98877 2.88138 6.15693 3.50103 5.54289C4.12068 4.92884 4.95572 4.58113 5.82805 4.57396C11.8431 4.54096 17.859 4.53 23.874 4.598C26.285 4.625 27.674 6.60296 27.202 9.16996C26.231 14.489 25.253 19.807 24.202 25.111C24.0292 26.1575 23.6344 27.1548 23.044 28.036C22.5711 28.5832 21.9279 28.9555 21.2179 29.0931C20.5079 29.2308 19.7722 29.1258 19.129 28.795C18.4261 28.4613 17.8573 27.899 17.5156 27.1999C17.1739 26.5009 17.0796 25.7066 17.248 24.947C17.869 21.494 18.532 18.047 19.174 14.598C19.365 13.586 19.5441 12.573 19.7371 11.506Z" fill="#4179FF"/>
<mask id="mask0_1_4" style="mask-type:luminance" maskUnits="userSpaceOnUse" x="16" y="16" width="11" height="10">
<path d="M18.527 16.843L16.513 25.398L24.1791 25.411L26.01 17.919L18.527 16.843Z" fill="white"/>
</mask>
<g mask="url(#mask0_1_4)">
<path d="M7.69603 17.66C8.57003 13.517 9.42304 9.48998 10.266 5.45998C10.4084 4.8682 10.5056 4.26649 10.557 3.65999C10.6115 2.81202 10.3498 1.97392 9.82256 1.30758C9.29529 0.641236 8.5398 0.193895 7.70202 0.0519615C6.84619 -0.112911 5.95979 0.062678 5.23143 0.541341C4.50307 1.02 3.99021 1.76395 3.80199 2.61495C2.52299 8.49295 1.26501 14.3759 0.0850109 20.2739C-0.387989 22.6379 1.26003 24.403 3.86803 24.474C9.27303 24.627 14.678 24.7739 20.084 24.8469C21.1431 24.8949 22.2001 24.7156 23.184 24.3209C23.8173 23.9717 24.3149 23.4199 24.5969 22.754C24.8788 22.0881 24.9289 21.3467 24.739 20.6489C24.5583 19.8922 24.1262 19.2192 23.5133 18.74C22.9004 18.2607 22.143 18.0037 21.365 18.0109C17.858 17.9029 14.349 17.837 10.841 17.749C9.80899 17.728 8.78103 17.692 7.69603 17.66Z" fill="#00E9FF"/>
</g>
</svg>
