<svg xmlns="http://www.w3.org/2000/svg" xmlns:xlink="http://www.w3.org/1999/xlink" width="182.758" height="31.713" viewBox="0 0 182.758 31.713">
  <defs>
    <clipPath id="clip-path">
      <path id="Path_5101" data-name="Path 5101" d="M900.868,569.317l-2.014,8.555,7.666.013,1.831-7.492Z" transform="translate(-898.854 -569.317)" fill="none"/>
    </clipPath>
  </defs>
  <g id="Group_3794" data-name="Group 3794" transform="translate(-849.048 -518.517)">
    <g id="Group_3576" data-name="Group 3576" transform="translate(849.048 518.517)">
      <path id="Path_5098" data-name="Path 5098" d="M856.744,536.176c.874-4.143,1.727-8.17,2.57-12.2a12.042,12.042,0,0,0,.291-1.8,3.436,3.436,0,0,0-2.855-3.608,3.346,3.346,0,0,0-3.9,2.563c-1.279,5.878-2.537,11.761-3.717,17.659-.473,2.364,1.175,4.129,3.783,4.2,5.405.153,10.81.3,16.216.373a7.425,7.425,0,0,0,3.1-.526,3.226,3.226,0,0,0,1.555-3.672,3.436,3.436,0,0,0-3.374-2.638c-3.507-.108-7.016-.174-10.524-.262C858.857,536.244,857.829,536.208,856.744,536.176Z" transform="translate(-849.048 -518.517)" fill="#00e9ff"/>
      <path id="Path_5099" data-name="Path 5099" d="M873.84,539.191c-4.234,0-8.351,0-12.467-.015a12.053,12.053,0,0,1-1.821-.089,3.435,3.435,0,0,1-2.938-3.541,3.345,3.345,0,0,1,3.317-3.287c6.015-.033,12.031-.044,18.046.024,2.411.027,3.8,2.005,3.328,4.572-.971,5.319-1.949,10.637-3,15.941a7.429,7.429,0,0,1-1.158,2.925,3.225,3.225,0,0,1-3.915.759,3.436,3.436,0,0,1-1.881-3.848c.621-3.453,1.284-6.9,1.926-10.349C873.468,541.271,873.647,540.258,873.84,539.191Z" transform="translate(-854.103 -527.685)" fill="#4179ff"/>
      <g id="Group_3575" data-name="Group 3575" transform="translate(16.513 16.843)">
        <g id="Group_3574" data-name="Group 3574" clip-path="url(#clip-path)">
          <path id="Path_5100" data-name="Path 5100" d="M856.744,536.176c.874-4.143,1.727-8.17,2.57-12.2a12.042,12.042,0,0,0,.291-1.8,3.436,3.436,0,0,0-2.855-3.608,3.346,3.346,0,0,0-3.9,2.563c-1.279,5.878-2.537,11.761-3.717,17.659-.473,2.364,1.175,4.129,3.783,4.2,5.405.153,10.81.3,16.216.373a7.425,7.425,0,0,0,3.1-.526,3.226,3.226,0,0,0,1.555-3.672,3.436,3.436,0,0,0-3.374-2.638c-3.507-.108-7.016-.174-10.524-.262C858.857,536.244,857.829,536.208,856.744,536.176Z" transform="translate(-865.561 -535.359)" fill="#00e9ff"/>
        </g>
      </g>
    </g>
    <g id="Group_3577" data-name="Group 3577" transform="translate(881.945 519.693)">
      <path id="Path_5102" data-name="Path 5102" d="M950.462,536.136h-2.191v-3.352h2.29V528.17h4.116v4.614h3.85v3.352h-3.85v6.837c0,2.788,2.191,3.187,3.352,3.187a3.892,3.892,0,0,0,.764-.066v3.684a7.75,7.75,0,0,1-1.294.1c-2.357,0-7.037-.7-7.037-6.372Z" transform="translate(-948.271 -526.146)" fill="#fff"/>
      <path id="Path_5103" data-name="Path 5103" d="M992.467,547.589H993v-.133c0-2.423-.962-3.32-3.12-3.32-.764,0-2.257.2-2.257,1.129v.9H983.7V544.37c0-3.153,4.448-3.485,6.207-3.485,5.643,0,7.3,2.954,7.3,6.738v6.306a.664.664,0,0,0,.73.73h1.328v3.552h-3.784c-1.56,0-2.157-.863-2.157-1.859,0-.431.033-.73.033-.73H993.3a5.51,5.51,0,0,1-5.111,2.987c-3.021,0-5.776-1.892-5.776-5.278C982.41,548.021,989.712,547.589,992.467,547.589Zm-3.253,7.734c2.257,0,3.85-2.39,3.85-4.447v-.4h-.731c-2.191,0-5.676.3-5.676,2.655A2.258,2.258,0,0,0,989.214,555.324Z" transform="translate(-971.091 -534.645)" fill="#fff"/>
      <path id="Path_5104" data-name="Path 5104" d="M1041.87,540.885c3.917,0,5.211,2.39,5.211,2.39h.067v-.432c0-.764.531-1.56,1.859-1.56h3.916v3.585h-1.294a.647.647,0,0,0-.731.664v11.651c0,5.809-4.514,8-8.929,8a13.5,13.5,0,0,1-6.008-1.46l1.294-3.319a10.928,10.928,0,0,0,4.68,1.129c2.556,0,4.78-1.1,4.78-4.149v-.8c0-.4.034-.9.034-.9h-.066a5.249,5.249,0,0,1-4.714,2.191c-4.846,0-7.6-3.916-7.6-8.563S1036.991,540.885,1041.87,540.885Zm4.946,8.464c0-3.85-1.925-4.879-4.216-4.879-2.555,0-3.95,1.859-3.95,4.714,0,2.954,1.493,5.145,4.216,5.145C1044.891,554.328,1046.816,553.166,1046.816,549.349Z" transform="translate(-1005.824 -534.645)" fill="#fff"/>
      <path id="Path_5105" data-name="Path 5105" d="M1100.23,540.885c4.846,0,7.5,3.552,7.5,8.033,0,.5-.1,1.56-.1,1.56h-11.684a4.867,4.867,0,0,0,5.078,4.547,7.694,7.694,0,0,0,4.747-1.892l1.759,2.921a10.3,10.3,0,0,1-6.8,2.556,8.675,8.675,0,0,1-9.094-8.863C1091.633,544.536,1095.151,540.885,1100.23,540.885Zm3.187,6.672a3.287,3.287,0,0,0-3.187-3.419,4.057,4.057,0,0,0-4.149,3.419Z" transform="translate(-1044.102 -534.645)" fill="#fff"/>
      <path id="Path_5106" data-name="Path 5106" d="M1144.347,545.6a.65.65,0,0,0-.731-.731h-1.327v-3.585h3.884c1.493,0,2.224.7,2.224,1.892v.5c0,.365-.034.73-.034.73h.067a6.3,6.3,0,0,1,5.476-3.519,4.72,4.72,0,0,1,4.946,3.485h.066a6.538,6.538,0,0,1,5.776-3.485c3.518,0,5.543,1.992,5.543,6.439v6.605a.664.664,0,0,0,.73.73h1.294v3.552h-3.983c-1.594,0-2.258-.664-2.258-2.257v-7.834c0-1.925-.365-3.385-2.324-3.385-2.09,0-3.584,1.76-4.049,3.884a7.391,7.391,0,0,0-.266,2.158v7.435h-4.215V548.121c0-1.826-.265-3.385-2.29-3.385-2.125,0-3.552,1.76-4.083,3.917a8.638,8.638,0,0,0-.266,2.124v7.435h-4.182Z" transform="translate(-1077.963 -534.645)" fill="#fff"/>
      <path id="Path_5107" data-name="Path 5107" d="M1234.348,526.379a.65.65,0,0,0-.731-.73h-1.328v-3.585h4.016c1.56,0,2.257.7,2.257,2.257v4.913c0,.83-.066,1.427-.066,1.427h.066a6.019,6.019,0,0,1,5.079-2.356c4.581,0,7.5,3.618,7.5,8.862,0,5.377-3.286,8.863-7.767,8.863a6.038,6.038,0,0,1-5.045-2.39h-.066a8.9,8.9,0,0,1,.066,1.129v.863h-3.983Zm8.3,16.1c2.29,0,4.249-1.892,4.249-5.244,0-3.22-1.726-5.311-4.216-5.311-2.19,0-4.248,1.594-4.248,5.344C1238.431,539.888,1239.825,542.477,1242.646,542.477Z" transform="translate(-1138.124 -522.064)" fill="#fff"/>
      <path id="Path_5108" data-name="Path 5108" d="M1300.253,540.885c4.846,0,7.5,3.552,7.5,8.033,0,.5-.1,1.56-.1,1.56h-11.683a4.867,4.867,0,0,0,5.078,4.547,7.7,7.7,0,0,0,4.747-1.892l1.759,2.921a10.3,10.3,0,0,1-6.8,2.556,8.675,8.675,0,0,1-9.095-8.863C1291.656,544.536,1295.175,540.885,1300.253,540.885Zm3.187,6.672a3.287,3.287,0,0,0-3.187-3.419,4.057,4.057,0,0,0-4.149,3.419Z" transform="translate(-1177.808 -534.645)" fill="#fff"/>
      <path id="Path_5109" data-name="Path 5109" d="M1351.114,528.3c3.684,0,4.878,2.058,4.878,2.058h.067s-.033-.431-.033-1v-2.987a.649.649,0,0,0-.73-.73h-1.328v-3.585h4.016c1.56,0,2.257.7,2.257,2.257v17.028a.664.664,0,0,0,.73.73h1.294v3.552h-3.884c-1.527,0-2.091-.731-2.091-1.726v-.631h-.066a5.819,5.819,0,0,1-5.277,2.755c-4.581,0-7.535-3.618-7.535-8.863C1343.412,531.789,1346.632,528.3,1351.114,528.3Zm5.011,8.83c0-2.623-1.361-5.212-4.182-5.212-2.323,0-4.249,1.892-4.249,5.244,0,3.22,1.693,5.311,4.182,5.311C1354.067,542.477,1356.125,540.884,1356.125,537.134Z" transform="translate(-1212.404 -522.064)" fill="#fff"/>
    </g>
  </g>
</svg>
