<svg xmlns="http://www.w3.org/2000/svg" width="46" height="46" viewBox="0 0 74 74" fill="none"><path d="M1 11.8619C1.01072 8.97798 2.99409 6.98925 5.8941 6.99997C12.0747 7.02677 18.2553 7.08573 24.4306 7.1179C25.8511 7.12862 27.0411 7.64322 28.0382 8.64563C35.2587 15.8715 42.4792 23.0921 49.6998 30.3126C53.0232 33.6361 56.3628 36.9542 59.6756 40.2884C61.2033 41.8215 61.273 43.8746 59.8203 45.338C53.0125 52.1726 46.1887 58.9857 39.3648 65.8042C38.609 66.56 37.6923 66.9192 36.6256 66.8388C35.5267 66.753 34.728 66.1312 33.9775 65.3807C23.5514 54.9332 13.12 44.5017 2.67782 34.0703C1.63789 33.0304 1.09649 31.8082 1.10721 30.3233C1.12329 27.2732 1.10721 24.2231 1.10721 21.173M14.3154 17.1205C14.3315 15.3623 12.9002 13.9257 11.1205 13.9203C9.43736 13.915 8.05436 15.2604 8.01684 16.9436C7.97932 18.6965 9.41592 20.176 11.1741 20.1921C12.8895 20.2081 14.2939 18.8359 14.3154 17.1205Z" fill="url(#paint0_linear_1002_94)"></path><path d="M72.8139 21.3286C72.8139 24.3787 72.8032 27.4288 72.8139 30.4789C72.8246 31.9637 72.2832 33.1859 71.2433 34.2258C60.8011 44.6573 50.3697 55.0887 39.9382 65.5309C39.1878 66.2814 38.389 66.9032 37.2902 66.9889C36.2234 67.0693 35.3068 66.7102 34.551 65.9544C27.7271 59.1359 20.9032 52.3227 14.0954 45.4881C12.6374 44.0247 12.7124 41.9717 14.2402 40.4386C17.5583 37.1044 20.8925 33.7916 24.216 30.4628C31.4365 23.2422 38.6624 16.0217 45.8776 8.7958C46.88 7.7934 48.0647 7.27879 49.4852 7.26807C55.6658 7.23055 61.8464 7.17695 68.0217 7.15014C70.9217 7.13942 72.905 9.12815 72.9158 12.0121M62.7363 20.3369C64.4945 20.3208 65.9364 18.8413 65.8936 17.0884C65.856 15.4053 64.4784 14.0598 62.7899 14.0651C61.0048 14.0705 59.5736 15.5071 59.595 17.2653C59.6111 18.9753 61.0155 20.3476 62.7363 20.3369Z" fill="url(#paint1_linear_1002_94)"></path><defs><linearGradient id="paint0_linear_1002_94" x1="38.6733" y1="19.2701" x2="13.2754" y2="44.6679" gradientUnits="userSpaceOnUse"><stop stop-color="#4100FB"></stop><stop offset="0.11" stop-color="#4209FB"></stop><stop offset="0.29" stop-color="#4822FB"></stop><stop offset="0.52" stop-color="#514CFC"></stop><stop offset="0.78" stop-color="#5D85FD"></stop><stop offset="0.99" stop-color="#68B8FE"></stop></linearGradient><linearGradient id="paint1_linear_1002_94" x1="42.9883" y1="66.9997" x2="42.9883" y2="7.1555" gradientUnits="userSpaceOnUse"><stop stop-color="#4100FB"></stop><stop offset="0.11" stop-color="#4209FB"></stop><stop offset="0.29" stop-color="#4822FB"></stop><stop offset="0.52" stop-color="#514CFC"></stop><stop offset="0.78" stop-color="#5D85FD"></stop><stop offset="0.99" stop-color="#68B8FE"></stop></linearGradient></defs></svg>