<svg width="127" height="30" viewBox="0 0 127 30" fill="none" xmlns="http://www.w3.org/2000/svg">
<g clip-path="url(#clip0_0_3)">
<mask id="mask0_0_3" style="mask-type:luminance" maskUnits="userSpaceOnUse" x="0" y="0" width="142" height="30">
<path d="M141.377 0.964958H0V29.0207H141.377V0.964958Z" fill="white"/>
</mask>
<g mask="url(#mask0_0_3)">
<path d="M0 3.24084C0.0050101 1.89232 0.931879 0.962391 2.28711 0.967405C5.17544 0.979937 8.06375 1.00751 10.9496 1.02255C11.6134 1.02756 12.1695 1.26819 12.6355 1.73691C16.0098 5.11574 19.3841 8.49206 22.7584 11.8684C24.3115 13.4224 25.8721 14.974 27.4203 16.533C28.1342 17.2499 28.1668 18.2099 27.4879 18.8942C24.3065 22.0901 21.1176 25.2759 17.9286 28.4642C17.5754 28.8176 17.1471 28.9855 16.6485 28.948C16.135 28.9078 15.7618 28.6171 15.4111 28.2662C10.5387 23.3809 5.66393 18.5032 0.784079 13.6255C0.298101 13.1392 0.0450908 12.5677 0.050101 11.8734C0.0576162 10.4471 0.050101 9.02094 0.050101 7.59471M6.22255 5.69977C6.23005 4.87763 5.5612 4.20586 4.72953 4.20335C3.94296 4.20085 3.29664 4.82998 3.27911 5.61703C3.26157 6.43668 3.93293 7.1285 4.75459 7.136C5.5562 7.14353 6.21253 6.50186 6.22255 5.69977Z" fill="url(#paint0_linear_0_3)"/>
<path d="M33.56 7.6671C33.56 9.09334 33.555 10.5195 33.56 11.9458C33.565 12.6401 33.312 13.2116 32.826 13.6979C27.9462 18.5756 23.0713 23.4533 18.1965 28.3361C17.8458 28.687 17.4726 28.9777 16.959 29.0179C16.4605 29.0554 16.0322 28.8875 15.679 28.5341C12.49 25.3457 9.30109 22.1599 6.11969 18.9641C5.4383 18.2798 5.47339 17.3198 6.18733 16.6029C7.73793 15.0439 9.29609 13.4948 10.8492 11.9382C14.2235 8.56192 17.6003 5.18564 20.9721 1.8068C21.4405 1.33808 21.9942 1.09745 22.658 1.09244C25.5463 1.07489 28.4347 1.04983 31.3205 1.03729C32.6757 1.03228 33.6026 1.96221 33.6076 3.31073M28.8505 7.2034C29.6721 7.19587 30.346 6.50408 30.326 5.68443C30.3084 4.89737 29.6646 4.26823 28.8755 4.27074C28.0414 4.27324 27.3725 4.94499 27.3825 5.76714C27.39 6.56672 28.0464 7.2084 28.8505 7.2034Z" fill="url(#paint1_linear_0_3)"/>
<path d="M45.9798 8.73171H43.9232V5.79154C43.9232 5.51331 43.778 5.36043 43.5175 5.36043H41.8843C41.6136 5.36043 41.4533 5.52084 41.4533 5.79154V8.73171H39.8876C39.6096 8.73171 39.4292 8.90215 39.4292 9.16283V10.3033C39.4292 10.574 39.6172 10.762 39.8876 10.762H41.4533V18.6576C41.4533 20.6704 42.518 21.7357 44.5294 21.7357C44.9655 21.7357 46.3882 21.6855 46.3882 21.0439V19.9535C46.3882 19.8081 46.3505 19.7004 46.2732 19.6277C46.1804 19.5399 46.0325 19.5048 45.822 19.5224C45.5742 19.5475 45.2336 19.575 45.0254 19.575C44.2665 19.575 43.9283 19.1965 43.9283 18.3468V10.762H45.985C46.2479 10.762 46.4159 10.5816 46.4159 10.3033V9.16283C46.4159 8.89212 46.2554 8.73171 45.985 8.73171H45.9798Z" fill="#333333"/>
<path d="M59.6951 8.72849H58.192C57.9315 8.72849 57.7864 8.88141 57.7864 9.15964L57.7412 10.8666C56.7591 9.28497 55.1235 8.4177 53.1093 8.4177C49.4793 8.4177 46.8442 11.2501 46.8442 15.1528C46.8442 19.0555 49.4793 21.8879 53.1093 21.8879C55.131 21.8879 56.7266 21.0582 57.7412 19.4816L57.7864 21.1434C57.7864 21.4216 57.9291 21.5745 58.192 21.5745H59.6951C59.9656 21.5745 60.1261 21.4141 60.1261 21.1434V9.15964C60.1261 8.8889 59.9656 8.72849 59.6951 8.72849ZM53.5252 19.5994C51.015 19.5994 49.264 17.7721 49.264 15.1528C49.264 12.5334 51.0177 10.7062 53.5252 10.7062C56.0327 10.7062 57.6837 12.546 57.6837 15.1778C57.6837 17.8097 56.0128 19.5969 53.5252 19.5969V19.5994Z" fill="#333333"/>
<path d="M74.2258 8.72853H72.7227C72.4523 8.72853 72.2921 8.88897 72.2921 9.15968L72.2695 10.6912C71.2977 9.20229 69.7295 8.41774 67.7204 8.41774C64.0778 8.41774 61.5327 11.0797 61.5327 14.8946C61.5327 18.7096 64.0881 21.3966 67.7454 21.3966C69.7093 21.3966 71.26 20.6296 72.2394 19.1733V20.8853C72.2394 24.4295 69.1681 24.813 67.8481 24.813C66.5278 24.813 65.3355 24.4746 64.301 23.8355C64.0528 23.7127 63.8074 23.7854 63.692 24.021L63.1988 24.9309C63.0735 25.179 63.1536 25.4472 63.4018 25.6151C64.5389 26.4197 66.2574 26.8985 68.0035 26.8985C69.7494 26.8985 71.3976 26.4147 72.5502 25.5399C73.9126 24.5047 74.6318 22.9231 74.6318 20.968V9.15968C74.6318 8.88144 74.4891 8.72853 74.2258 8.72853ZM68.1062 19.1307C65.6587 19.1307 63.9478 17.3887 63.9478 14.8921C63.9478 12.3956 65.6563 10.6811 68.1062 10.6811C70.5559 10.6811 72.1867 12.3956 72.1867 14.9448C72.1867 17.4939 70.5459 19.1307 68.1062 19.1307Z" fill="#333333"/>
<path d="M82.1317 14.3883L80.7313 13.8168C79.6691 13.4058 78.8574 13.0097 78.8574 11.962C78.8574 11.0571 79.5838 10.4731 80.7063 10.4731C81.5881 10.4731 82.3645 10.8366 83.146 11.6211C83.2915 11.7665 83.4191 11.8291 83.5393 11.8266C83.6523 11.8191 83.7625 11.7514 83.8676 11.6186L84.4913 10.8917C84.6666 10.6811 84.6768 10.4455 84.519 10.2601C83.5646 9.07194 82.1741 8.41774 80.6036 8.41774C78.5593 8.41774 76.4903 9.65347 76.4903 12.0146C76.4903 13.5787 77.4019 14.6866 79.3586 15.5012L80.8891 16.1504C82.0389 16.6217 82.6626 17.0653 82.6626 18.0579C82.6626 19.1182 81.876 19.7273 80.5009 19.7273C79.3836 19.7273 78.4542 19.3087 77.4899 18.3712C77.3694 18.2509 77.2369 18.1907 77.1065 18.1983C76.9812 18.2058 76.8634 18.276 76.7631 18.4038L76.2421 19.1357C76.1196 19.3412 76.0066 19.6145 76.2496 19.8902C76.8586 20.6371 78.2337 21.8854 80.606 21.8854C82.7752 21.8854 85.1075 20.7023 85.1075 18.108C85.1376 15.8847 83.4243 14.9197 82.1341 14.3858L82.1317 14.3883Z" fill="#333333"/>
<path d="M93.1266 8.41959C91.3654 8.41959 89.9352 9.17409 89.0732 10.5477V3.32631C89.0732 3.04808 88.9305 2.89518 88.6676 2.89518H87.034C86.7636 2.89518 86.6034 3.0556 86.6034 3.32631V21.1478C86.6034 21.4185 86.7636 21.579 87.034 21.579H88.6676C88.9281 21.579 89.0732 21.4261 89.0732 21.1478V14.0393C89.0732 12.0466 90.4011 10.7081 92.3749 10.7081C94.349 10.7081 95.3411 11.9213 95.3411 14.0393V21.1478C95.3411 21.4261 95.4838 21.579 95.7467 21.579H97.3799C97.6507 21.579 97.8109 21.4185 97.8109 21.1478V13.6758C97.8109 10.4323 96.0171 8.41959 93.1266 8.41959Z" fill="#333333"/>
<path d="M105.777 8.41774C101.999 8.41774 99.1483 11.3128 99.1483 15.1528C99.1483 18.9928 101.999 21.8879 105.777 21.8879C109.554 21.8879 112.38 18.9928 112.38 15.1528C112.38 11.3128 109.542 8.41774 105.777 8.41774ZM105.777 19.5719C103.299 19.5719 101.568 17.7546 101.568 15.1528C101.568 12.551 103.299 10.7062 105.777 10.7062C108.254 10.7062 109.985 12.5761 109.985 15.1528C109.985 17.7295 108.214 19.5719 105.777 19.5719Z" fill="#333333"/>
<path d="M120.735 8.41774C118.721 8.41774 117.087 9.285 116.103 10.8666L116.058 9.15968C116.058 8.88144 115.913 8.72853 115.652 8.72853H114.149C113.879 8.72853 113.718 8.88897 113.718 9.15968V26.0763C113.718 26.347 113.879 26.5075 114.149 26.5075H115.783C116.053 26.5075 116.213 26.347 116.213 26.0763V19.6195C117.19 21.0858 118.786 21.8904 120.735 21.8904C124.365 21.8904 127 19.058 127 15.1553C127 11.2526 124.365 8.42023 120.735 8.42023V8.41774ZM120.319 10.7087C122.829 10.7087 124.58 12.536 124.58 15.1553C124.58 17.7747 122.827 19.6019 120.319 19.6019C117.812 19.6019 116.161 17.8248 116.161 15.1829C116.161 12.541 117.872 10.7112 120.319 10.7112V10.7087Z" fill="#333333"/>
</g>
</g>
<defs>
<linearGradient id="paint0_linear_0_3" x1="17.6055" y1="6.70489" x2="5.72948" y2="18.5738" gradientUnits="userSpaceOnUse">
<stop stop-color="#4100FB"/>
<stop offset="0.11" stop-color="#4209FB"/>
<stop offset="0.29" stop-color="#4822FB"/>
<stop offset="0.52" stop-color="#514CFC"/>
<stop offset="0.78" stop-color="#5D85FD"/>
<stop offset="0.99" stop-color="#68B8FE"/>
</linearGradient>
<linearGradient id="paint1_linear_0_3" x1="19.6219" y1="29.0229" x2="19.6219" y2="1.0398" gradientUnits="userSpaceOnUse">
<stop stop-color="#4100FB"/>
<stop offset="0.11" stop-color="#4209FB"/>
<stop offset="0.29" stop-color="#4822FB"/>
<stop offset="0.52" stop-color="#514CFC"/>
<stop offset="0.78" stop-color="#5D85FD"/>
<stop offset="0.99" stop-color="#68B8FE"/>
</linearGradient>
<clipPath id="clip0_0_3">
<rect width="127" height="28.0701" fill="white" transform="translate(0 0.964958)"/>
</clipPath>
</defs>
</svg>
