<svg width="374" height="84" viewBox="0 0 374 84" fill="none" xmlns="http://www.w3.org/2000/svg">
<g clip-path="url(#clip0_2199_232)">
<g clip-path="url(#clip1_2199_232)">
<path d="M134.642 23.4292H128.618V14.8251C128.618 14.0079 128.197 13.5643 127.427 13.5643H122.64C121.847 13.5643 121.38 14.0312 121.38 14.8251V23.4292H116.792C115.974 23.4292 115.449 23.9195 115.449 24.69V28.0289C115.449 28.8228 115.998 29.3715 116.792 29.3715H121.38V52.4752C121.38 58.3708 124.497 61.4762 130.392 61.4762C131.665 61.4762 135.833 61.3361 135.833 59.4565V56.2694C135.833 55.8374 135.716 55.5339 135.494 55.3121C135.225 55.0552 134.794 54.9618 134.175 54.9969C133.451 55.0669 132.459 55.1486 131.84 55.1486C129.61 55.1486 128.629 54.0396 128.629 51.5529V29.3715H134.653C135.424 29.3715 135.914 28.8461 135.914 28.0289V24.69C135.914 23.8962 135.447 23.4292 134.653 23.4292H134.642Z" fill="white"/>
<path d="M174.802 23.4292H170.401C169.63 23.4292 169.21 23.8728 169.21 24.69L169.081 29.6867C166.209 25.0519 161.411 22.5186 155.516 22.5186C144.88 22.5186 137.175 30.8074 137.175 42.2367C137.175 53.666 144.892 61.9432 155.516 61.9432C161.435 61.9432 166.116 59.5149 169.081 54.9035L169.21 59.7717C169.21 60.5889 169.63 61.0325 170.401 61.0325H174.802C175.596 61.0325 176.063 60.5539 176.063 59.7717V24.69C176.063 23.8961 175.596 23.4292 174.802 23.4292ZM156.73 55.242C149.387 55.242 144.25 49.8951 144.25 42.2367C144.25 34.5783 149.387 29.2314 156.73 29.2314C164.073 29.2314 168.906 34.6133 168.906 42.3184C168.906 50.0235 164.015 55.2537 156.73 55.2537V55.242Z" fill="white"/>
<path d="M217.168 23.4292H212.767C211.973 23.4292 211.506 23.8961 211.506 24.69L211.436 29.173C208.588 24.8184 203.999 22.5186 198.116 22.5186C187.445 22.5186 179.997 30.3171 179.997 41.4779C179.997 52.6386 187.48 60.5072 198.186 60.5072C203.941 60.5072 208.471 58.2657 211.343 54.0045V59.0129C211.343 69.3798 202.353 70.5005 198.489 70.5005C194.625 70.5005 191.134 69.5082 188.099 67.6403C187.737 67.4535 187.363 67.4185 187.037 67.5235C186.733 67.6286 186.476 67.8504 186.313 68.1773L184.865 70.8391C184.503 71.5629 184.737 72.3568 185.46 72.8354C188.788 75.182 193.831 76.5946 198.933 76.5946C204.035 76.5946 208.868 75.182 212.242 72.6136C216.234 69.5782 218.336 64.9552 218.336 59.2347V24.69C218.336 23.8728 217.915 23.4292 217.145 23.4292H217.168ZM199.248 53.8761C192.08 53.8761 187.072 48.7744 187.072 41.4779C187.072 34.1813 192.08 29.1496 199.248 29.1496C206.416 29.1496 211.191 34.158 211.191 41.6296C211.191 49.1013 206.393 53.8761 199.248 53.8761Z" fill="white"/>
<path d="M242.616 39.9953L238.518 38.3259C235.413 37.1234 233.031 35.9559 233.031 32.8972C233.031 30.2471 235.156 28.5427 238.448 28.5427C241.028 28.5427 243.305 29.605 245.593 31.9049C246.025 32.3369 246.41 32.5353 246.749 32.5003C247.087 32.477 247.402 32.2785 247.706 31.8932L249.527 29.7685C250.029 29.1614 250.064 28.4493 249.609 27.9239C246.819 24.4449 242.744 22.5303 238.145 22.5303C232.156 22.5303 226.096 26.1494 226.096 33.0607C226.096 37.6371 228.77 40.8826 234.49 43.2641L238.973 45.1671C242.336 46.5447 244.169 47.8405 244.169 50.7475C244.169 53.8529 241.857 55.6391 237.841 55.6391C234.572 55.6391 231.852 54.4132 229.027 51.6697C228.677 51.3195 228.268 51.1444 227.906 51.1677C227.532 51.1911 227.194 51.4012 226.902 51.7748L225.373 53.9112C225.011 54.5183 224.684 55.3122 225.396 56.1177C227.182 58.3008 231.198 61.9549 238.156 61.9549C244.507 61.9549 251.337 58.4993 251.337 50.8992C251.418 44.3849 246.41 41.5597 242.628 40.007L242.616 39.9953Z" fill="white"/>
<path d="M274.802 22.5185C269.642 22.5185 265.463 24.725 262.93 28.741V7.61027C262.93 6.79306 262.509 6.34943 261.739 6.34943H256.952C256.158 6.34943 255.691 6.82808 255.691 7.61027V59.7717C255.691 60.5655 256.158 61.0325 256.952 61.0325H261.739C262.509 61.0325 262.93 60.5889 262.93 59.7717V38.9678C262.93 33.1423 266.817 29.2197 272.596 29.2197C278.375 29.2197 281.282 32.7687 281.282 38.9678V59.7717C281.282 60.5889 281.702 61.0325 282.473 61.0325H287.259C288.053 61.0325 288.52 60.5539 288.52 59.7717V37.9054C288.52 28.4141 283.266 22.5185 274.802 22.5185V22.5185Z" fill="white"/>
<path d="M311.846 22.5186C300.778 22.5186 292.431 30.9942 292.431 42.2367C292.431 53.4792 300.778 61.9432 311.846 61.9432C322.913 61.9432 331.178 53.4675 331.178 42.2367C331.178 31.0059 322.866 22.5186 311.846 22.5186V22.5186ZM311.846 55.1603C304.584 55.1603 299.517 49.8368 299.517 42.225C299.517 34.6133 304.584 29.2197 311.846 29.2197C319.107 29.2197 324.174 34.695 324.174 42.225C324.174 49.755 318.99 55.1603 311.846 55.1603Z" fill="white"/>
<path d="M355.648 22.5184C349.753 22.5184 344.966 25.0518 342.094 29.6866L341.966 24.6899C341.966 23.8727 341.545 23.4291 340.775 23.4291H336.374C335.58 23.4291 335.113 23.896 335.113 24.6899V74.1895C335.113 74.9834 335.58 75.4504 336.374 75.4504H341.16C341.954 75.4504 342.421 74.9834 342.421 74.1895V55.2886C345.281 59.5848 349.951 61.9314 355.66 61.9314C366.295 61.9314 374 53.6425 374 42.2249C374 30.8073 366.284 22.5068 355.66 22.5068L355.648 22.5184ZM354.434 29.2196C361.777 29.2196 366.914 34.5665 366.914 42.2249C366.914 49.8833 361.777 55.2302 354.434 55.2302C347.091 55.2302 342.258 50.0351 342.258 42.295C342.258 34.5548 347.266 29.2079 354.434 29.2079V29.2196Z" fill="white"/>
<path d="M98.264 20.3121C98.264 24.4915 98.2523 28.6593 98.264 32.8388C98.264 34.8701 97.5402 36.5396 96.1159 37.9638C81.8264 52.2417 67.5485 66.5195 53.2823 80.7974C52.255 81.8247 51.1576 82.677 49.6516 82.7937C48.1923 82.9105 46.9315 82.4085 45.9041 81.3811C36.5645 72.0532 27.225 62.7253 17.9088 53.3741C15.9125 51.3778 16.0175 48.5642 18.1072 46.4628C22.6486 41.8981 27.2133 37.3684 31.7663 32.8154C41.6546 22.9388 51.5312 13.0506 61.4078 3.16232C62.7737 1.79641 64.3964 1.08427 66.3461 1.0726C74.7983 1.0259 83.2623 0.944179 91.7146 0.909156C95.6839 0.897482 98.4041 3.61763 98.4158 7.56359M84.4881 18.9578C86.8931 18.9345 88.866 16.9148 88.8077 14.5099C88.761 12.21 86.8697 10.3655 84.5582 10.3771C82.1182 10.3771 80.1569 12.3501 80.1803 14.755C80.2036 17.1016 82.1299 18.9812 84.4765 18.9578H84.4881Z" fill="white"/>
<path d="M0.151768 32.6284C0.151768 34.6597 0.875583 36.3292 2.29987 37.7534C5.45196 40.9055 8.60406 44.0693 11.7678 47.2214L46.511 12.4666C43.3472 9.30282 40.1718 6.12737 37.008 2.96359C35.6421 1.59768 34.0193 0.885542 32.0697 0.873868C23.6057 0.82717 15.1534 0.745449 6.70113 0.710426C2.73182 0.698751 0.0116744 3.4189 0 7.36486L0.151768 20.1017C0.151768 24.2811 0.163442 28.4489 0.151768 32.6284ZM13.8459 10.1784C16.2858 10.1784 18.2472 12.1514 18.2238 14.5563C18.2005 16.9029 16.2742 18.7825 13.9276 18.7591C11.5227 18.7358 9.54969 16.7161 9.60807 14.3112C9.65476 12.0113 11.546 10.1667 13.8576 10.1784H13.8459Z" fill="white"/>
</g>
</g>
<defs>
<clipPath id="clip0_2199_232">
<rect width="374" height="82.327" fill="white" transform="translate(0 0.710693)"/>
</clipPath>
<clipPath id="clip1_2199_232">
<rect width="374" height="82.327" fill="white" transform="translate(0 0.710693)"/>
</clipPath>
</defs>
</svg>
