<svg width="88" height="27" viewBox="0 0 88 27" fill="none" xmlns="http://www.w3.org/2000/svg">
<g filter="url(#filter0_b_8102_13351)">
<path d="M0 3C0 1.34315 1.34315 0 3 0H85C86.6569 0 88 1.34315 88 3V24C88 25.6569 86.6569 27 85 27H3C1.34315 27 0 25.6569 0 24V3Z" fill="black" fill-opacity="0.41"/>
</g>
<g clip-path="url(#clip0_8102_13351)">
<path d="M33.6403 10.4951H32.4484V8.79268C32.4484 8.63099 32.3652 8.54321 32.2127 8.54321H31.2657C31.1086 8.54321 31.0162 8.63561 31.0162 8.79268V10.4951H30.1084C29.9467 10.4951 29.8428 10.5921 29.8428 10.7446V11.4052C29.8428 11.5623 29.9513 11.6708 30.1084 11.6708H31.0162V16.2422C31.0162 17.4087 31.633 18.0231 32.7995 18.0231C33.0512 18.0231 33.8759 17.9954 33.8759 17.6235V16.9929C33.8759 16.9074 33.8528 16.8474 33.8089 16.8035C33.7558 16.7527 33.6703 16.7342 33.5479 16.7411C33.4047 16.755 33.2083 16.7711 33.0859 16.7711C32.6447 16.7711 32.4507 16.5517 32.4507 16.0597V11.6708H33.6426C33.795 11.6708 33.8921 11.5669 33.8921 11.4052V10.7446C33.8921 10.5875 33.7997 10.4951 33.6426 10.4951H33.6403Z" fill="white"/>
<path d="M41.5865 10.4951H40.7156C40.5632 10.4951 40.48 10.5829 40.48 10.7446L40.4546 11.7332C39.8864 10.8162 38.937 10.3149 37.7705 10.3149C35.6661 10.3149 34.1416 11.955 34.1416 14.2164C34.1416 16.4778 35.6685 18.1155 37.7705 18.1155C38.9416 18.1155 39.8679 17.6351 40.4546 16.7227L40.48 17.6859C40.48 17.8476 40.5632 17.9354 40.7156 17.9354H41.5865C41.7435 17.9354 41.8359 17.8407 41.8359 17.6859V10.7446C41.8359 10.5875 41.7435 10.4951 41.5865 10.4951ZM38.0107 16.7896C36.5578 16.7896 35.5414 15.7317 35.5414 14.2164C35.5414 12.7011 36.5578 11.6431 38.0107 11.6431C39.4636 11.6431 40.42 12.708 40.42 14.2326C40.42 15.7571 39.4521 16.7919 38.0107 16.7919V16.7896Z" fill="white"/>
<path d="M49.9693 10.4951H49.0984C48.9414 10.4951 48.849 10.5875 48.849 10.7446L48.8351 11.6316C48.2715 10.77 47.3637 10.3149 46.1995 10.3149C44.0882 10.3149 42.6145 11.858 42.6145 14.0662C42.6145 16.2745 44.0952 17.8314 46.2134 17.8314C47.3521 17.8314 48.2484 17.3879 48.8166 16.5448V17.5357C48.8166 19.5869 47.038 19.8087 46.2734 19.8087C45.5088 19.8087 44.8182 19.6124 44.2176 19.2428C44.146 19.2058 44.0721 19.1989 44.0074 19.2197C43.9473 19.2405 43.8965 19.2843 43.8642 19.349L43.5777 19.8757C43.5061 20.0189 43.5523 20.176 43.6955 20.2707C44.3539 20.735 45.3518 21.0145 46.3612 21.0145C47.3706 21.0145 48.3269 20.735 48.9945 20.2268C49.7845 19.6262 50.2003 18.7115 50.2003 17.5796V10.7446C50.2003 10.5829 50.1171 10.4951 49.9647 10.4951H49.9693ZM46.4236 16.5194C45.0053 16.5194 44.0143 15.5099 44.0143 14.0662C44.0143 12.6225 45.0053 11.627 46.4236 11.627C47.8418 11.627 48.7866 12.6179 48.7866 14.0963C48.7866 15.5746 47.8372 16.5194 46.4236 16.5194Z" fill="white"/>
<path d="M55.0043 13.7729L54.1935 13.4426C53.5791 13.2047 53.1079 12.9737 53.1079 12.3685C53.1079 11.8441 53.5283 11.5069 54.1797 11.5069C54.6902 11.5069 55.1406 11.7171 55.5934 12.1721C55.6788 12.2576 55.7551 12.2969 55.822 12.2899C55.889 12.2853 55.9514 12.246 56.0114 12.1698L56.3718 11.7494C56.4711 11.6293 56.4781 11.4884 56.388 11.3844C55.8359 10.6961 55.0297 10.3173 54.1196 10.3173C52.9346 10.3173 51.7358 11.0333 51.7358 12.4008C51.7358 13.3063 52.2648 13.9484 53.3966 14.4197L54.2836 14.7962C54.9489 15.0688 55.3115 15.3252 55.3115 15.9003C55.3115 16.5148 54.8542 16.8682 54.0596 16.8682C53.4128 16.8682 52.8746 16.6256 52.3156 16.0828C52.2463 16.0135 52.1654 15.9789 52.0938 15.9835C52.0199 15.9881 51.9529 16.0297 51.8952 16.1036L51.5926 16.5263C51.521 16.6464 51.4563 16.8035 51.5972 16.9629C51.9506 17.3948 52.7452 18.1178 54.1219 18.1178C55.3785 18.1178 56.7298 17.4341 56.7298 15.9304C56.746 14.6414 55.7551 14.0824 55.0066 13.7752L55.0043 13.7729Z" fill="white"/>
<path d="M61.3729 10.3149C60.3519 10.3149 59.525 10.7515 59.0237 11.5461V7.36516C59.0237 7.20347 58.9405 7.11569 58.7881 7.11569H57.841C57.6839 7.11569 57.5916 7.2104 57.5916 7.36516V17.6859C57.5916 17.8429 57.6839 17.9353 57.841 17.9353H58.7881C58.9405 17.9353 59.0237 17.8476 59.0237 17.6859V13.5696C59.0237 12.417 59.7929 11.6408 60.9363 11.6408C62.0797 11.6408 62.6549 12.343 62.6549 13.5696V17.6859C62.6549 17.8476 62.738 17.9353 62.8905 17.9353H63.8376C63.9946 17.9353 64.087 17.8406 64.087 17.6859V13.3594C64.087 11.4814 63.0476 10.3149 61.3729 10.3149V10.3149Z" fill="white"/>
<path d="M68.702 10.3149C66.5122 10.3149 64.8606 11.9919 64.8606 14.2164C64.8606 16.4408 66.5122 18.1155 68.702 18.1155C70.8918 18.1155 72.5272 16.4385 72.5272 14.2164C72.5272 11.9943 70.8825 10.3149 68.702 10.3149V10.3149ZM68.702 16.7735C67.2652 16.7735 66.2627 15.7201 66.2627 14.2141C66.2627 12.708 67.2652 11.6408 68.702 11.6408C70.1388 11.6408 71.1413 12.7242 71.1413 14.2141C71.1413 15.704 70.1157 16.7735 68.702 16.7735Z" fill="white"/>
<path d="M77.3691 10.3149C76.2025 10.3149 75.2555 10.8162 74.6872 11.7332L74.6618 10.7445C74.6618 10.5829 74.5787 10.4951 74.4262 10.4951H73.5554C73.3983 10.4951 73.3059 10.5875 73.3059 10.7445V20.5386C73.3059 20.6957 73.3983 20.7881 73.5554 20.7881H74.5025C74.6595 20.7881 74.7519 20.6957 74.7519 20.5386V16.7988C75.3178 17.6489 76.2418 18.1132 77.3714 18.1132C79.4757 18.1132 81.0002 16.4731 81.0002 14.214C81.0002 11.9549 79.4734 10.3126 77.3714 10.3126L77.3691 10.3149ZM77.1288 11.6408C78.5818 11.6408 79.5981 12.6987 79.5981 14.214C79.5981 15.7293 78.5818 16.7873 77.1288 16.7873C75.6759 16.7873 74.7196 15.7594 74.7196 14.2279C74.7196 12.6964 75.7105 11.6385 77.1288 11.6385V11.6408Z" fill="white"/>
<path d="M26.4426 9.87837C26.4426 10.7053 26.4403 11.53 26.4426 12.3569C26.4426 12.7588 26.2994 13.0891 26.0176 13.371C23.1903 16.196 20.3652 19.021 17.5425 21.846C17.3393 22.0493 17.1221 22.2179 16.8241 22.241C16.5354 22.2641 16.2859 22.1648 16.0827 21.9615C14.2347 20.1159 12.3868 18.2703 10.5435 16.42C10.1485 16.0251 10.1693 15.4684 10.5828 15.0526C11.4813 14.1494 12.3845 13.2532 13.2854 12.3523C15.2419 10.3981 17.196 8.4416 19.1502 6.4851C19.4205 6.21484 19.7416 6.07393 20.1273 6.07162C21.7997 6.06238 23.4744 6.04621 25.1468 6.03928C25.9321 6.03697 26.4704 6.57518 26.4727 7.35594M23.7169 9.61041C24.1928 9.6058 24.5832 9.20618 24.5716 8.73034C24.5624 8.27528 24.1882 7.91032 23.7308 7.91263C23.248 7.91263 22.86 8.303 22.8646 8.77884C22.8692 9.24314 23.2503 9.61503 23.7146 9.61041H23.7169Z" fill="white"/>
<path d="M7.03003 12.3153C7.03003 12.7172 7.17324 13.0475 7.45505 13.3293C8.07873 13.953 8.70241 14.579 9.3284 15.2027L16.2027 8.32603C15.5767 7.70005 14.9484 7.07175 14.3224 6.44576C14.0522 6.1755 13.7311 6.0346 13.3453 6.03229C11.6707 6.02305 9.99827 6.00688 8.32589 5.99995C7.54052 5.99764 7.00231 6.53585 7 7.3166L7.03003 9.83672C7.03003 10.6637 7.03234 11.4883 7.03003 12.3153ZM9.73956 7.87329C10.2223 7.87329 10.6104 8.26366 10.6058 8.73951C10.6012 9.2038 10.22 9.5757 9.75573 9.57108C9.27989 9.56646 8.88951 9.16684 8.90106 8.691C8.9103 8.23595 9.28451 7.87098 9.74187 7.87329H9.73956Z" fill="white"/>
</g>
<defs>
<filter id="filter0_b_8102_13351" x="-4" y="-4" width="96" height="35" filterUnits="userSpaceOnUse" color-interpolation-filters="sRGB">
<feFlood flood-opacity="0" result="BackgroundImageFix"/>
<feGaussianBlur in="BackgroundImageFix" stdDeviation="2"/>
<feComposite in2="SourceAlpha" operator="in" result="effect1_backgroundBlur_8102_13351"/>
<feBlend mode="normal" in="SourceGraphic" in2="effect1_backgroundBlur_8102_13351" result="shape"/>
</filter>
<clipPath id="clip0_8102_13351">
<rect width="74" height="17.29" fill="white" transform="translate(7 6)"/>
</clipPath>
</defs>
</svg>
